G04 ================== begin FILE IDENTIFICATION RECORD ==================*
G04 Layout Name:  PULSE_MODULATION.brd*
G04 Film Name:    BOTTOM*
G04 File Format:  Gerber RS274X*
G04 File Origin:  Cadence Allegro 17.2-P019*
G04 Origin Date:  Tue Jul 30 17:46:15 2019*
G04 *
G04 Layer:  ETCH/BOTTOM*
G04 Layer:  PIN/BOTTOM*
G04 Layer:  VIA CLASS/BOTTOM*
G04 *
G04 Offset:    (0.000 0.000)*
G04 Mirror:    No*
G04 Mode:      Positive*
G04 Rotation:  0*
G04 FullContactRelief:  No*
G04 UndefLineWidth:     0.000*
G04 ================== end FILE IDENTIFICATION RECORD ====================*
%FSLAX25Y25*MOMM*%
%IR0*IPPOS*OFA0.00000B0.00000*MIA0B0*SFA1.00000B1.00000*%
%ADD11C,1.524*%
%ADD12C,1.651*%
%ADD13R,1.524X1.524*%
%ADD17C,1.397*%
%ADD16R,1.397X1.397*%
%ADD15O,1.016X1.524*%
%ADD14R,1.016X1.524*%
%ADD10C,.635*%
%ADD18C,1.*%
%ADD19C,.5*%
%ADD22C,2.418*%
%ADD21C,2.544*%
%ADD20C,2.672*%
G75*
%LPD*%
G75*
G36*
G01X847300Y597500D02*
X3497800D01*
X3657000Y756700D01*
Y2341800D01*
X3497800Y2501000D01*
X3280800D01*
G03X3236200Y2527200I-44600J-24861D01*
G01X3175600D01*
X2854200Y2848600D01*
Y4905300D01*
G02X2867000Y4915100I10179J-36D01*
G03X2782400Y5086500I32999J122866D01*
G02X2763600I-9400J3930D01*
G03X2528400I-117600J-48500D01*
G02X2509600I-9400J3930D01*
G03X2274400I-117600J-48500D01*
G02X2255600I-9400J3930D01*
G03Y4989500I-117600J-48500D01*
G02X2274400I9400J-3930D01*
G03X2509600I117600J48500D01*
G02X2528400I9400J-3930D01*
G03X2627600Y4912100I117618J48475D01*
G01X2629300Y4911900D01*
X2652200Y4889000D01*
Y2765000D01*
X2877300Y2539800D01*
G02X2872800Y2522800I-7207J-7188D01*
G03X2788400Y2448500I33198J-122797D01*
G02X2769600I-9400J3930D01*
G03X2534400I-117600J-48500D01*
G02X2515600I-9400J3930D01*
G03X2320700Y2501000I-117587J-48505D01*
G01X1983300D01*
X1942500Y2541800D01*
Y5658100D01*
X1983400Y5699000D01*
X2060700D01*
G03X2255600Y5751500I77313J101005D01*
G02X2274400I9400J-3930D01*
G03X2509600I117600J48500D01*
G02X2528400I9400J-3930D01*
G03X2753900Y5732700I117578J48510D01*
G02X2772800Y5727300I8693J-5351D01*
G01Y5723800D01*
G03X2823800Y5672800I51000J0D01*
G01X2976200D01*
G03X3027200Y5723800I0J51000D01*
G01Y5876200D01*
G03X2976200Y5927200I-51000J0D01*
G01X2823800D01*
G03X2772800Y5876200I0J-51000D01*
G01Y5872700D01*
G02X2753900Y5867300I-10207J-49D01*
G03X2528400Y5848500I-107922J-67310D01*
G02X2509600I-9400J3930D01*
G03X2274400I-117600J-48500D01*
G02X2255600I-9400J3930D01*
G03X2060700Y5901000I-117587J-48505D01*
G01X1899800D01*
X1740500Y5741700D01*
Y2458200D01*
X1899700Y2299000D01*
X2320700D01*
G03X2515600Y2351500I77313J101005D01*
G02X2534400I9400J-3930D01*
G03X2576000Y2298000I117590J48511D01*
G01Y2050000D01*
X2570500Y2044500D01*
X1110900D01*
X1000400Y2155000D01*
Y4481500D01*
X905900Y4576000D01*
X602000D01*
G03X508000Y4626900I-101953J-76035D01*
G01Y6245800D01*
X754200D01*
Y6477000D01*
X9245800D01*
Y6245800D01*
X9508000D01*
Y3391400D01*
G02X9498000Y3381200I-10192J-10D01*
G03X9451500Y3136400I1981J-127193D01*
G02Y3117600I-3930J-9400D01*
G03X9498000Y2872800I48481J-117607D01*
G02X9508000Y2862600I-192J-10190D01*
G01Y762200D01*
X9207300D01*
Y477000D01*
X754200D01*
Y665900D01*
G02X771600Y673200I10205J62D01*
G01X847300Y597500D01*
G37*
G36*
G01X508000Y2111100D02*
G03X537400Y2116400I-7708J126953D01*
G02X550600Y2106700I3010J-9735D01*
G01Y894200D01*
X673200Y771600D01*
G02X665900Y754200I-7238J-7195D01*
G01X508000D01*
Y2111100D01*
G37*
G36*
G01X930900Y799500D02*
X752600Y977800D01*
Y2850700D01*
X708200Y2895100D01*
Y2934600D01*
X626100Y3016700D01*
X625900Y3018400D01*
G03X508000Y3126900I-125852J-18448D01*
G01Y3865100D01*
G03X548500Y4109600I-8024J126933D01*
G02Y4128400I3930J9400D01*
G03X602000Y4170000I-48511J117590D01*
G01X767500D01*
X773000Y4164500D01*
Y1977100D01*
X996500Y1753600D01*
X2309900D01*
G02X2316400Y1735600I-48J-10191D01*
G03X2515600Y1589500I81607J-97583D01*
G02X2534400I9400J-3930D01*
G03X2576000Y1536000I117590J48511D01*
G01Y1263900D01*
G03X2542000Y1222700I83971J-103926D01*
G02X2524000I-9000J4743D01*
G03Y1097300I-118000J-62700D01*
G02X2542000I9000J-4743D01*
G03X2736000Y1269900I117978J62721D01*
G01Y1324500D01*
X2728000Y1332500D01*
Y1536000D01*
G03X2769600Y1589500I-75990J102011D01*
G02X2788400I9400J-3930D01*
G03X3023600I117600J48500D01*
G02X3042400I9400J-3930D01*
G03X3144100Y1764200I117595J48495D01*
G01X3141600Y1763900D01*
X2999900Y1905600D01*
X2671200D01*
G02X2664000Y1923000I6J10192D01*
G01X2728000Y1987000D01*
Y2298000D01*
G03X2769600Y2351500I-75990J102011D01*
G02X2788400I9400J-3930D01*
G03X3013900Y2332700I117578J48510D01*
G02X3032800Y2327300I8693J-5351D01*
G01Y2323800D01*
G03X3083800Y2272800I51000J0D01*
G01X3236200D01*
G03X3280800Y2299000I0J51061D01*
G01X3414200D01*
X3455000Y2258200D01*
Y1231400D01*
G02X3436000Y1226400I-10177J71D01*
G03Y1093600I-116000J-66400D01*
G02X3455000Y1088600I8823J-5071D01*
G01Y840300D01*
X3414200Y799500D01*
X930900D01*
G37*
G36*
G01X602000Y4322000D02*
G03X548500Y4363600I-102011J-75990D01*
G02Y4382400I3930J9400D01*
G03X602000Y4424000I-48511J117590D01*
G01X842900D01*
X848400Y4418500D01*
Y4328700D01*
G02X831000Y4321500I-10192J6D01*
G01X830500Y4322000D01*
X602000D01*
G37*
G36*
G01X2515600Y1686500D02*
G03X2479600Y1735600I-117608J-48482D01*
G02X2486100Y1753600I6548J7809D01*
G01X2563900D01*
G02X2570400Y1735600I-48J-10191D01*
G03X2534400Y1686500I81608J-97582D01*
G02X2515600I-9400J3930D01*
G37*
G36*
G01X2769600D02*
G03X2733600Y1735600I-117608J-48482D01*
G02X2740100Y1753600I6548J7809D01*
G01X2817900D01*
G02X2824400Y1735600I-48J-10191D01*
G03X2788400Y1686500I81608J-97582D01*
G02X2769600I-9400J3930D01*
G37*
%LPC*%
G75*
G36*
G01X7219200Y1630200D02*
Y1769800D01*
G02X7270200Y1820800I50950J50D01*
G01X7409800D01*
G02X7460800Y1769800I50J-50950D01*
G01Y1630200D01*
G02X7409800Y1579200I-50950J-50D01*
G01X7270200D01*
G02X7219200Y1630200I-50J50950D01*
G37*
G36*
G01X7474400Y5851500D02*
G03X7455600I-9400J-3930D01*
G02Y5948500I-117600J48500D01*
G03X7474400I9400J3930D01*
G02X7709600I117600J-48500D01*
G03X7728400I9400J3930D01*
G02X7953900Y5967300I117578J-48510D01*
G03X7972800Y5972700I8693J5351D01*
G01Y5976200D01*
G02X8023800Y6027200I51000J0D01*
G01X8176200D01*
G02X8227200Y5976200I0J-51000D01*
G01Y5823800D01*
G02X8176200Y5772800I-51000J0D01*
G01X8023800D01*
G02X7972800Y5823800I0J51000D01*
G01Y5827300D01*
G03X7953900Y5832700I-10207J49D01*
G02X7728400Y5851500I-107922J67310D01*
G03X7709600I-9400J-3930D01*
G02X7474400I-117600J48500D01*
G37*
G36*
G01X3752800Y5174300D02*
G03X3753200Y5159500I7189J-7211D01*
G02X3588000Y5169900I-89191J-99490D01*
G01Y5224500D01*
X3604000Y5240500D01*
Y5650100D01*
G02X3756000I76000J109900D01*
G01Y5177500D01*
X3752800Y5174300D01*
G37*
G36*
G01X7496000Y4357300D02*
G03X7478000I-9000J-4743D01*
G02X7270800Y4519500I-117971J62742D01*
G03X7271200Y4534300I-6789J7589D01*
G01X7262000Y4543500D01*
Y5036000D01*
G02X7455600Y5186500I76007J101998D01*
G03X7474400I9400J3930D01*
G02X7709600I117600J-48500D01*
G03X7728400I9400J3930D01*
G02X7963600I117600J-48500D01*
G03X7982400I9400J3930D01*
G02Y5089500I117600J-48500D01*
G03X7963600I-9400J-3930D01*
G02X7728400I-117600J48500D01*
G03X7709600I-9400J-3930D01*
G02X7474400I-117600J48500D01*
G03X7455600I-9400J-3930D01*
G02X7414000Y5036000I-117590J48511D01*
G01Y4606500D01*
X7436000Y4584500D01*
Y4529900D01*
G02X7478000Y4482700I-75988J-109903D01*
G03X7496000I9000J4743D01*
G02Y4357300I118000J-62700D01*
G37*
G36*
G01X5724000Y4411500D02*
X5858000Y4545500D01*
Y4930300D01*
G03X5844100Y4939800I-10197J0D01*
G02X5761900Y4943400I-37027J94807D01*
G02X5730800Y4932800I-31100J40323D01*
G01X5629200D01*
G02X5578200Y4983800I0J51000D01*
G01Y5136200D01*
G02X5604000Y5180500I50933J0D01*
G01Y5823500D01*
X5698500Y5918000D01*
X6359500D01*
G02X6358000Y5764000I100496J-77986D01*
G01X6301900D01*
X6299900Y5766000D01*
X5761500D01*
X5756000Y5760500D01*
Y5180500D01*
G02X5761900Y5176600I-25096J-44379D01*
G02X5870500Y5165000I45177J-91215D01*
G02X6035800Y5085400I63484J-79600D01*
G01Y5034600D01*
G02X6010000Y4966900I-101723J0D01*
G01Y4482500D01*
X5831500Y4304000D01*
X5831900Y4301400D01*
G02X5590100Y4204000I-131885J-21430D01*
G01X4975600D01*
X4812000Y4040400D01*
Y3669900D01*
G02X4660000I-76000J-109900D01*
G01Y4103400D01*
X4680200Y4123500D01*
G03X4677400Y4139900I-7226J7205D01*
G02X4856100Y4318600I58600J120100D01*
G03X4872500Y4315800I9195J4426D01*
G01X4912600Y4356000D01*
X5590100D01*
G02X5721400Y4411900I109902J-75990D01*
G01X5724000Y4411500D01*
G37*
G36*
G01X6401900Y2586200D02*
X6404400Y2585900D01*
X6580000Y2761500D01*
Y3428100D01*
G03X6562600Y3435400I-10205J62D01*
G01X6328200Y3201000D01*
X3778200D01*
X3619000Y3360200D01*
Y3472500D01*
G02X3822200Y3474000I100960J87500D01*
G01X3821000Y3472500D01*
Y3443800D01*
X3861800Y3403000D01*
X6244600D01*
X6397000Y3555400D01*
Y5206200D01*
X6613000Y5422200D01*
Y5508700D01*
G02X6815000I101000J77300D01*
G01Y5338600D01*
X6599000Y5122600D01*
Y4376300D01*
G03X6616800Y4369500I10195J-11D01*
G02Y4190500I99200J-89500D01*
G03X6599000Y4183700I-7605J-6789D01*
G01Y3736000D01*
G03X6612500Y3726300I10203J-44D01*
G02X6732000Y3490100I43509J-126317D01*
G01Y2698500D01*
X6638100Y2604600D01*
G03X6645300Y2587200I7206J-7208D01*
G01X6716200D01*
G02X6767200Y2536200I0J-51000D01*
G01Y2383800D01*
G02X6716200Y2332800I-51000J0D01*
G01X6563800D01*
G02X6512800Y2383800I0J51000D01*
G01Y2387300D01*
G03X6493900Y2392700I-10207J49D01*
G02X6268400Y2411500I-107922J67310D01*
G03X6249600I-9400J-3930D01*
G02X6014400I-117600J48500D01*
G03X5995600I-9400J-3930D01*
G02Y2508500I-117600J48500D01*
G03X6014400I9400J3930D01*
G02X6249600I117600J-48500D01*
G03X6268400I9400J3930D01*
G02X6401900Y2586200I117592J-48503D01*
G37*
G36*
G01X6014400Y1649500D02*
G03X5995600I-9400J-3930D01*
G02Y1746500I-117600J48500D01*
G03X6014400I9400J3930D01*
G02X6249600I117600J-48500D01*
G03X6268400I9400J3930D01*
G02X6503600I117600J-48500D01*
G03X6522400I9400J3930D01*
G02Y1649500I117600J-48500D01*
G03X6503600I-9400J-3930D01*
G02X6268400I-117600J48500D01*
G03X6249600I-9400J-3930D01*
G02X6014400I-117600J48500D01*
G37*
G36*
G01X4414400Y1629500D02*
G03X4395600I-9400J-3930D01*
G02Y1726500I-117600J48500D01*
G03X4414400I9400J3930D01*
G02X4649600I117600J-48500D01*
G03X4668400I9400J3930D01*
G02X4903600I117600J-48500D01*
G03X4922400I9400J3930D01*
G02Y1629500I117600J-48500D01*
G03X4903600I-9400J-3930D01*
G02X4668400I-117600J48500D01*
G03X4649600I-9400J-3930D01*
G02X4414400I-117600J48500D01*
G37*
G36*
G01X4516100Y2313800D02*
X4513600Y2314100D01*
X4409500Y2210000D01*
X4145500D01*
X4013000Y2077500D01*
Y1301500D01*
X4078500Y1236000D01*
X4226100D01*
G02Y1084000I109900J-76000D01*
G01X4015500D01*
X3861000Y1238500D01*
Y2140500D01*
X4082500Y2362000D01*
X4158500D01*
G03X4167400Y2377200I7J10202D01*
G02X4395600Y2488500I110604J62819D01*
G03X4414400I9400J3930D01*
G02X4649600I117600J-48500D01*
G03X4668400I9400J3930D01*
G02X4893900Y2507300I117578J-48510D01*
G03X4912800Y2512700I8693J5351D01*
G01Y2516200D01*
G02X4963800Y2567200I51000J0D01*
G01X5116200D01*
G02X5167200Y2516200I0J-51000D01*
G01Y2363800D01*
G02X5116200Y2312800I-51000J0D01*
G01X4963800D01*
G02X4912800Y2363800I0J51000D01*
G01Y2367300D01*
G03X4893900Y2372700I-10207J49D01*
G02X4668400Y2391500I-107922J67310D01*
G03X4649600I-9400J-3930D01*
G02X4516100Y2313800I-117592J48503D01*
G37*
G54D22*
X7340000Y2614400D03*
G54D21*
X5380000Y5372000D03*
X5126000Y5626000D03*
X5380000Y5880000D03*
X6968000Y5840000D03*
G54D20*
X3720000Y4260000D03*
X4696000Y5760000D03*
X4680000Y5060000D03*
X5640000Y3600000D03*
X7240000Y3620000D03*
X8100000Y1624000D03*
Y2640000D03*
X8256000Y3620000D03*
%LPD*%
G75*
G54D10*
X500000Y500000D03*
Y6500000D03*
X9461500Y508000D03*
X9500000Y6500000D03*
G54D11*
X500000Y2238000D03*
Y2492000D03*
Y2746000D03*
Y3000000D03*
Y4246000D03*
Y3992000D03*
Y4500000D03*
X2398000Y1638000D03*
X2652000D03*
X2398000Y2400000D03*
X2652000D03*
X2138000Y5038000D03*
X2392000D03*
X2646000D03*
X2138000Y5800000D03*
X2392000D03*
X2646000D03*
X2906000Y1638000D03*
X3160000D03*
X2906000Y2400000D03*
X2900000Y5038000D03*
X4278000Y1678000D03*
X4532000D03*
X4786000D03*
X4278000Y2440000D03*
X4532000D03*
X4786000D03*
X5040000Y1678000D03*
X5380000Y5372000D03*
X5126000Y5626000D03*
X5380000Y5880000D03*
X5878000Y1698000D03*
X6132000D03*
X6386000D03*
X5878000Y2460000D03*
X6132000D03*
X6386000D03*
X6460000Y5840000D03*
X6640000Y1698000D03*
X6714000Y5586000D03*
X6968000Y5840000D03*
X7338000Y5138000D03*
X7592000D03*
X7846000D03*
X7338000Y5900000D03*
X7592000D03*
X7846000D03*
X8100000Y5138000D03*
X9500000Y3254000D03*
Y3000000D03*
G54D12*
X2406000Y1160000D03*
X2660000D03*
X3320000D03*
X3720000Y3560000D03*
Y4260000D03*
X3680000Y5760000D03*
X3664000Y5060000D03*
X4336000Y1160000D03*
X4736000Y3560000D03*
Y4260000D03*
X4696000Y5760000D03*
X4680000Y5060000D03*
X5640000Y3600000D03*
X5700000Y4280000D03*
X7240000Y3620000D03*
X6656000Y3600000D03*
X6716000Y4280000D03*
X7614000Y4420000D03*
X7360000D03*
X8100000Y1624000D03*
Y2640000D03*
X8256000Y3620000D03*
G54D13*
X3160000Y2400000D03*
X2900000Y5800000D03*
X5040000Y2440000D03*
X6640000Y2460000D03*
X8100000Y5900000D03*
G54D14*
X5680000Y5060000D03*
G54D15*
X5807000D03*
X5934000D03*
G54D16*
X7340000Y1700000D03*
G54D17*
Y2614400D03*
G54D18*
G01X500000Y3992000D02*
X348400Y3840400D01*
Y2592000D01*
X448400Y2492000D01*
X500000D01*
G01X3160000Y2400000D02*
X3456000D01*
X3556000Y2300000D01*
Y798500D01*
X3456000Y698500D01*
X889100D01*
X651600Y936000D01*
Y2808900D01*
X607200Y2853300D01*
Y2892800D01*
X500000Y3000000D01*
G01X2138000Y5800000D02*
X1941600D01*
X1841500Y5699900D01*
Y2500000D01*
X1941500Y2400000D01*
X2398000D01*
G01X3160000D02*
X2753200Y2806800D01*
Y4930800D01*
X2646000Y5038000D01*
G01X3720000Y3560000D02*
Y3402000D01*
X3820000Y3302000D01*
X6286400D01*
X6498000Y3513600D01*
Y5164400D01*
X6714000Y5380400D01*
Y5586000D01*
G54D19*
G01X500000Y4246000D02*
X799000D01*
X849000Y4196000D01*
Y2008600D01*
X1028000Y1829600D01*
X2968400D01*
X3160000Y1638000D01*
G01X500000Y4500000D02*
X874400D01*
X924400Y4450000D01*
Y2123500D01*
X1079400Y1968500D01*
X2602000D01*
X2652000Y2018500D01*
Y2400000D01*
G01X2406000Y1021300D02*
Y1160000D01*
G01X2267300D02*
X2406000D01*
G01D02*
Y1298700D01*
G01X2660000Y1160000D02*
Y1293000D01*
X2652000Y1301000D01*
Y1638000D01*
G01X2392000Y5667700D02*
Y5800000D01*
G01D02*
Y5932300D01*
G01X4336000Y1160000D02*
X4047000D01*
X3937000Y1270000D01*
Y2109000D01*
X4114000Y2286000D01*
X4378000D01*
X4532000Y2440000D01*
G01X3680000Y5760000D02*
Y5209000D01*
X3664000Y5193000D01*
Y5060000D01*
G01X5700000Y4280000D02*
X4944100D01*
X4736000Y4071900D01*
Y3560000D01*
G01X5700000Y4280000D02*
X5934000Y4514000D01*
Y5060000D01*
G01X5680000D02*
Y5792000D01*
X5730000Y5842000D01*
X6331400D01*
X6333400Y5840000D01*
X6460000D01*
G01X6132000Y2460000D02*
Y2592300D01*
G01Y2327700D02*
Y2460000D01*
G01X6656000Y3600000D02*
Y2730000D01*
X6386000Y2460000D01*
G01X6716000Y4141300D02*
Y4280000D01*
G01D02*
X6854700D01*
G01X6716000D02*
Y4418700D01*
G01X7961300Y1624000D02*
X8100000D01*
G01X7614000Y4420000D02*
X7752700D01*
G01X7614000D02*
Y4558700D01*
G01Y4281300D02*
Y4420000D01*
G01X7338000Y5138000D02*
Y4575000D01*
X7360000Y4553000D01*
Y4420000D01*
G01X8100000Y1624000D02*
X8238700D01*
G01X8100000D02*
Y1762700D01*
G01Y1485300D02*
Y1624000D01*
G01X8256000Y3620000D02*
X8394700D01*
G01X8117300D02*
X8256000D01*
G01D02*
Y3758700D01*
G01Y3481300D02*
Y3620000D01*
G01X8100000Y5900000D02*
X8232300D01*
G01X8100000D02*
Y6032300D01*
G01Y5767700D02*
Y5900000D01*
G01X9367700Y3254000D02*
X9500000D01*
G01D02*
Y3386300D01*
M02*
