G04 ================== begin FILE IDENTIFICATION RECORD ==================*
G04 Layout Name:  PULSE_MODULATION.brd*
G04 Film Name:    drillDraw*
G04 File Format:  Gerber RS274X*
G04 File Origin:  Cadence Allegro 17.2-P019*
G04 Origin Date:  Tue Jul 30 17:46:15 2019*
G04 *
G04 Layer:  MANUFACTURING/NCLEGEND-1-2*
G04 Layer:  BOARD GEOMETRY/OUTLINE*
G04 Layer:  BOARD GEOMETRY/DESIGN_OUTLINE*
G04 *
G04 Offset:    (0.000 0.000)*
G04 Mirror:    No*
G04 Mode:      Positive*
G04 Rotation:  0*
G04 FullContactRelief:  No*
G04 UndefLineWidth:     0.100*
G04 ================== end FILE IDENTIFICATION RECORD ====================*
%FSLAX25Y25*MOMM*%
%IR0*IPPOS*OFA0.00000B0.00000*MIA0B0*SFA1.00000B1.00000*%
%AMMACRO14*
1,1,.1,.3175,0.0*
20,1,.1,.3175,0.0,-.3175,0.0,0.0*
1,1,.1,-.3175,0.0*
1,1,.1,0.0,.3175*
20,1,.1,0.0,.3175,0.0,-.3175,0.0*
1,1,.1,0.0,-.3175*
%
%ADD14MACRO14*%
%AMMACRO11*
1,1,.1,-.508,.3175*
20,1,.1,-.508,.3175,-.500282,.405713,0.0*
1,1,.1,-.500282,.405713*
20,1,.1,-.500282,.405713,-.477364,.491246,0.0*
1,1,.1,-.477364,.491246*
20,1,.1,-.477364,.491246,-.439941,.5715,0.0*
1,1,.1,-.439941,.5715*
20,1,.1,-.439941,.5715,-.389151,.644036,0.0*
1,1,.1,-.389151,.644036*
20,1,.1,-.389151,.644036,-.326536,.706651,0.0*
1,1,.1,-.326536,.706651*
20,1,.1,-.326536,.706651,-.254,.757441,0.0*
1,1,.1,-.254,.757441*
20,1,.1,-.254,.757441,-.173746,.794864,0.0*
1,1,.1,-.173746,.794864*
20,1,.1,-.173746,.794864,-.088213,.817782,0.0*
1,1,.1,-.088213,.817782*
20,1,.1,-.088213,.817782,0.0,.8255,0.0*
1,1,.1,0.0,.8255*
20,1,.1,0.0,.8255,.088213,.817782,0.0*
1,1,.1,.088213,.817782*
20,1,.1,.088213,.817782,.173746,.794864,0.0*
1,1,.1,.173746,.794864*
20,1,.1,.173746,.794864,.254,.757441,0.0*
1,1,.1,.254,.757441*
20,1,.1,.254,.757441,.326536,.706651,0.0*
1,1,.1,.326536,.706651*
20,1,.1,.326536,.706651,.389151,.644036,0.0*
1,1,.1,.389151,.644036*
20,1,.1,.389151,.644036,.439941,.5715,0.0*
1,1,.1,.439941,.5715*
20,1,.1,.439941,.5715,.477364,.491246,0.0*
1,1,.1,.477364,.491246*
20,1,.1,.477364,.491246,.500282,.405713,0.0*
1,1,.1,.500282,.405713*
20,1,.1,.500282,.405713,.508,.3175,0.0*
1,1,.1,.508,.3175*
20,1,.1,.508,.3175,.508,-.3175,0.0*
1,1,.1,.508,-.3175*
20,1,.1,.508,-.3175,.500282,-.405713,0.0*
1,1,.1,.500282,-.405713*
20,1,.1,.500282,-.405713,.477364,-.491246,0.0*
1,1,.1,.477364,-.491246*
20,1,.1,.477364,-.491246,.439941,-.5715,0.0*
1,1,.1,.439941,-.5715*
20,1,.1,.439941,-.5715,.389151,-.644036,0.0*
1,1,.1,.389151,-.644036*
20,1,.1,.389151,-.644036,.326536,-.706651,0.0*
1,1,.1,.326536,-.706651*
20,1,.1,.326536,-.706651,.254,-.757441,0.0*
1,1,.1,.254,-.757441*
20,1,.1,.254,-.757441,.173746,-.794864,0.0*
1,1,.1,.173746,-.794864*
20,1,.1,.173746,-.794864,.088213,-.817782,0.0*
1,1,.1,.088213,-.817782*
20,1,.1,.088213,-.817782,0.0,-.8255,0.0*
1,1,.1,0.0,-.8255*
20,1,.1,0.0,-.8255,-.088213,-.817782,0.0*
1,1,.1,-.088213,-.817782*
20,1,.1,-.088213,-.817782,-.173746,-.794864,0.0*
1,1,.1,-.173746,-.794864*
20,1,.1,-.173746,-.794864,-.254,-.757441,0.0*
1,1,.1,-.254,-.757441*
20,1,.1,-.254,-.757441,-.326536,-.706651,0.0*
1,1,.1,-.326536,-.706651*
20,1,.1,-.326536,-.706651,-.389151,-.644036,0.0*
1,1,.1,-.389151,-.644036*
20,1,.1,-.389151,-.644036,-.439941,-.5715,0.0*
1,1,.1,-.439941,-.5715*
20,1,.1,-.439941,-.5715,-.477364,-.491246,0.0*
1,1,.1,-.477364,-.491246*
20,1,.1,-.477364,-.491246,-.500282,-.405713,0.0*
1,1,.1,-.500282,-.405713*
20,1,.1,-.500282,-.405713,-.508,-.3175,0.0*
1,1,.1,-.508,-.3175*
20,1,.1,-.508,-.3175,-.508,.3175,0.0*
1,1,.1,-.508,.3175*
%
%ADD11MACRO11*%
%AMMACRO12*
1,1,.1,.635,0.0*
20,1,.1,.635,0.0,.3175,.549926,0.0*
1,1,.1,.3175,.549926*
20,1,.1,.3175,.549926,-.3175,.549926,0.0*
1,1,.1,-.3175,.549926*
20,1,.1,-.3175,.549926,-.635,0.0,0.0*
1,1,.1,-.635,0.0*
20,1,.1,-.635,0.0,-.3175,-.549926,0.0*
1,1,.1,-.3175,-.549926*
20,1,.1,-.3175,-.549926,.3175,-.549926,0.0*
1,1,.1,.3175,-.549926*
20,1,.1,.3175,-.549926,.635,0.0,0.0*
1,1,.1,.635,0.0*
%
%ADD12MACRO12*%
%AMMACRO13*
1,1,.1,.3935,0.0*
20,1,.1,.3935,0.0,.387522,-.068331,0.0*
1,1,.1,.387522,-.068331*
20,1,.1,.387522,-.068331,.369769,-.134585,0.0*
1,1,.1,.369769,-.134585*
20,1,.1,.369769,-.134585,.340781,-.19675,0.0*
1,1,.1,.340781,-.19675*
20,1,.1,.340781,-.19675,.301438,-.252937,0.0*
1,1,.1,.301438,-.252937*
20,1,.1,.301438,-.252937,.252937,-.301438,0.0*
1,1,.1,.252937,-.301438*
20,1,.1,.252937,-.301438,.19675,-.340781,0.0*
1,1,.1,.19675,-.340781*
20,1,.1,.19675,-.340781,.134585,-.369769,0.0*
1,1,.1,.134585,-.369769*
20,1,.1,.134585,-.369769,.068331,-.387522,0.0*
1,1,.1,.068331,-.387522*
20,1,.1,.068331,-.387522,0.0,-.3935,0.0*
1,1,.1,0.0,-.3935*
20,1,.1,0.0,-.3935,-.068331,-.387522,0.0*
1,1,.1,-.068331,-.387522*
20,1,.1,-.068331,-.387522,-.134585,-.369769,0.0*
1,1,.1,-.134585,-.369769*
20,1,.1,-.134585,-.369769,-.19675,-.340781,0.0*
1,1,.1,-.19675,-.340781*
20,1,.1,-.19675,-.340781,-.252937,-.301438,0.0*
1,1,.1,-.252937,-.301438*
20,1,.1,-.252937,-.301438,-.301438,-.252937,0.0*
1,1,.1,-.301438,-.252937*
20,1,.1,-.301438,-.252937,-.340781,-.19675,0.0*
1,1,.1,-.340781,-.19675*
20,1,.1,-.340781,-.19675,-.369769,-.134585,0.0*
1,1,.1,-.369769,-.134585*
20,1,.1,-.369769,-.134585,-.387522,-.068331,0.0*
1,1,.1,-.387522,-.068331*
20,1,.1,-.387522,-.068331,-.3935,0.0,0.0*
1,1,.1,-.3935,0.0*
20,1,.1,-.3935,0.0,-.387522,.068331,0.0*
1,1,.1,-.387522,.068331*
20,1,.1,-.387522,.068331,-.369769,.134585,0.0*
1,1,.1,-.369769,.134585*
20,1,.1,-.369769,.134585,-.340781,.19675,0.0*
1,1,.1,-.340781,.19675*
20,1,.1,-.340781,.19675,-.301438,.252937,0.0*
1,1,.1,-.301438,.252937*
20,1,.1,-.301438,.252937,-.252937,.301438,0.0*
1,1,.1,-.252937,.301438*
20,1,.1,-.252937,.301438,-.19675,.340781,0.0*
1,1,.1,-.19675,.340781*
20,1,.1,-.19675,.340781,-.134585,.369769,0.0*
1,1,.1,-.134585,.369769*
20,1,.1,-.134585,.369769,-.068331,.387522,0.0*
1,1,.1,-.068331,.387522*
20,1,.1,-.068331,.387522,0.0,.3935,0.0*
1,1,.1,0.0,.3935*
20,1,.1,0.0,.3935,.068331,.387522,0.0*
1,1,.1,.068331,.387522*
20,1,.1,.068331,.387522,.134585,.369769,0.0*
1,1,.1,.134585,.369769*
20,1,.1,.134585,.369769,.19675,.340781,0.0*
1,1,.1,.19675,.340781*
20,1,.1,.19675,.340781,.252937,.301438,0.0*
1,1,.1,.252937,.301438*
20,1,.1,.252937,.301438,.301438,.252937,0.0*
1,1,.1,.301438,.252937*
20,1,.1,.301438,.252937,.340781,.19675,0.0*
1,1,.1,.340781,.19675*
20,1,.1,.340781,.19675,.369769,.134585,0.0*
1,1,.1,.369769,.134585*
20,1,.1,.369769,.134585,.387522,.068331,0.0*
1,1,.1,.387522,.068331*
20,1,.1,.387522,.068331,.3935,0.0,0.0*
1,1,.1,.3935,0.0*
1,1,.1,-.163,-.196*
20,1,.1,-.163,-.196,0.0,.197,0.0*
1,1,.1,0.0,.197*
20,1,.1,0.0,.197,.164,-.196,0.0*
1,1,.1,.164,-.196*
1,1,.1,.105,-.058*
20,1,.1,.105,-.058,-.104,-.058,0.0*
1,1,.1,-.104,-.058*
%
%ADD13MACRO13*%
%AMMACRO10*
1,1,.1,-.666,-.952*
20,1,.1,-.666,-.952,.667,.953,0.0*
1,1,.1,.667,.953*
1,1,.1,-.666,.953*
20,1,.1,-.666,.953,.667,-.952,0.0*
1,1,.1,.667,-.952*
%
%ADD10MACRO10*%
%ADD15C,.1*%
G75*
%LPD*%
G75*
G54D10*
X500000Y500000D03*
Y6500000D03*
X202900Y7462100D03*
X9461500Y508000D03*
X9500000Y6500000D03*
G54D11*
X202900Y7747900D03*
X2406000Y1160000D03*
X2660000D03*
X3320000D03*
X3720000Y3560000D03*
Y4260000D03*
X3680000Y5760000D03*
X3664000Y5060000D03*
X4336000Y1160000D03*
X4736000Y3560000D03*
Y4260000D03*
X4696000Y5760000D03*
X4680000Y5060000D03*
X5640000Y3600000D03*
X5700000Y4280000D03*
X7240000Y3620000D03*
X6656000Y3600000D03*
X6716000Y4280000D03*
X7614000Y4420000D03*
X7360000D03*
X8100000Y1624000D03*
Y2640000D03*
X8256000Y3620000D03*
G54D12*
X202900Y8033600D03*
X500000Y2238000D03*
Y2492000D03*
Y2746000D03*
Y3000000D03*
Y4246000D03*
Y3992000D03*
Y4500000D03*
X2398000Y1638000D03*
X2652000D03*
X2398000Y2400000D03*
X2652000D03*
X2138000Y5038000D03*
X2392000D03*
X2646000D03*
X2138000Y5800000D03*
X2392000D03*
X2646000D03*
X2906000Y1638000D03*
X3160000D03*
X2906000Y2400000D03*
X3160000D03*
X2900000Y5038000D03*
Y5800000D03*
X4278000Y1678000D03*
X4532000D03*
X4786000D03*
X4278000Y2440000D03*
X4532000D03*
X4786000D03*
X5040000Y1678000D03*
Y2440000D03*
X5380000Y5372000D03*
X5126000Y5626000D03*
X5380000Y5880000D03*
X5878000Y1698000D03*
X6132000D03*
X6386000D03*
X5878000Y2460000D03*
X6132000D03*
X6386000D03*
X6460000Y5840000D03*
X6640000Y1698000D03*
Y2460000D03*
X6714000Y5586000D03*
X6968000Y5840000D03*
X7338000Y5138000D03*
X7592000D03*
X7846000D03*
X7338000Y5900000D03*
X7592000D03*
X7846000D03*
X8100000Y5138000D03*
Y5900000D03*
X9500000Y3254000D03*
Y3000000D03*
G54D13*
X202900Y8319400D03*
X5680000Y5060000D03*
X5807000D03*
X5934000D03*
G54D14*
X202900Y8605100D03*
X7340000Y1700000D03*
Y2614400D03*
G54D15*
G01X0Y0D02*
Y7000000D01*
X10000000D01*
Y0D01*
X0D01*
G01Y7605000D02*
X2237000D01*
G01X0Y7890800D02*
X2237000D01*
G01X0Y7319200D02*
Y9652000D01*
X2237000D01*
Y7319200D01*
X0D01*
G01Y8176500D02*
X2237000D01*
G01X0Y8462200D02*
X2237000D01*
G01X0Y8748000D02*
X2237000D01*
G01X50500Y8779800D02*
Y8843300D01*
X76300D01*
G01X66800Y8812600D02*
X50500D01*
G01X111100Y8843300D02*
X127300D01*
G01X119200D02*
Y8779800D01*
G01X111100D02*
X127300D01*
G01X179100Y8811500D02*
X192600D01*
Y8792500D01*
X188500Y8786100D01*
X183800Y8781900D01*
X177000Y8779800D01*
X170300Y8781900D01*
X165500Y8786100D01*
X161500Y8792500D01*
X158800Y8799900D01*
X157400Y8808400D01*
Y8815800D01*
X158800Y8822100D01*
X161500Y8829500D01*
X165500Y8835900D01*
X169600Y8840100D01*
X175000Y8843300D01*
X179700D01*
X185100Y8841200D01*
X189200Y8836900D01*
G01X215900Y8843300D02*
Y8797800D01*
X218600Y8788300D01*
X224000Y8781900D01*
X230800Y8779800D01*
X237600Y8781900D01*
X243000Y8788300D01*
X245700Y8797800D01*
Y8843300D01*
G01X273100Y8779800D02*
Y8843300D01*
X290000D01*
X295400Y8840100D01*
X298800Y8835900D01*
X300100Y8827400D01*
X298800Y8819000D01*
X294700Y8813700D01*
X290000Y8810500D01*
X273100D01*
G01X290000D02*
X300100Y8779800D01*
G01X355900D02*
X328900D01*
Y8843300D01*
X355900D01*
G01X345100Y8812600D02*
X328900D01*
G01X0Y8875000D02*
X2237000D01*
G01X0Y9002000D02*
X2237000D01*
G01X733300Y7443100D02*
X737400Y7435700D01*
X742800Y7431500D01*
X748900Y7430400D01*
X754300Y7431500D01*
X759700Y7436700D01*
X763100Y7443100D01*
X763800Y7449400D01*
X762400Y7456900D01*
X757700Y7462100D01*
X752900Y7464300D01*
X746800D01*
G01X752900D02*
X757000Y7467400D01*
X760400Y7472700D01*
X761700Y7479100D01*
X760400Y7485400D01*
X757000Y7490700D01*
X750900Y7493900D01*
X744800Y7492800D01*
X738700Y7488600D01*
G01X804000Y7428300D02*
X802600Y7429300D01*
Y7431500D01*
X804000Y7432500D01*
X805400Y7431500D01*
Y7429300D01*
X804000Y7428300D01*
G01X859800Y7430400D02*
Y7493900D01*
X851700Y7481200D01*
G01Y7430400D02*
X867900D01*
G01X914200D02*
X915600Y7444200D01*
X917600Y7455800D01*
X920300Y7466400D01*
X923700Y7478000D01*
X929100Y7493900D01*
X902100D01*
G01X956500Y7439900D02*
X960600Y7434600D01*
X965300Y7431500D01*
X971400Y7430400D01*
X977500Y7432500D01*
X982200Y7436700D01*
X985600Y7444200D01*
X986300Y7452600D01*
X984900Y7461100D01*
X981500Y7466400D01*
X976800Y7470600D01*
X972100Y7471700D01*
X967300Y7470600D01*
X961300Y7466400D01*
X963300Y7493900D01*
X981500D01*
G01X748200Y7716100D02*
Y7779600D01*
X740100Y7766900D01*
G01Y7716100D02*
X756300D01*
G01X804000Y7714000D02*
X802600Y7715000D01*
Y7717200D01*
X804000Y7718200D01*
X805400Y7717200D01*
Y7715000D01*
X804000Y7714000D01*
G01X859800Y7779600D02*
X854400Y7777500D01*
X850300Y7772200D01*
X847600Y7765800D01*
X845600Y7757400D01*
X844900Y7747800D01*
X845600Y7738300D01*
X847600Y7729900D01*
X850300Y7723500D01*
X854400Y7718200D01*
X859800Y7716100D01*
X865200Y7718200D01*
X869300Y7723500D01*
X872000Y7729900D01*
X874000Y7738300D01*
X874700Y7747800D01*
X874000Y7757400D01*
X872000Y7765800D01*
X869300Y7772200D01*
X865200Y7777500D01*
X859800Y7779600D01*
G01X902700Y7742600D02*
X907500Y7750000D01*
X911500Y7754200D01*
X917000Y7756300D01*
X921700Y7754200D01*
X925100Y7750000D01*
X927800Y7743600D01*
X928500Y7736200D01*
X927800Y7729900D01*
X925100Y7723500D01*
X921000Y7718200D01*
X916300Y7716100D01*
X910900Y7718200D01*
X906100Y7724600D01*
X903400Y7734100D01*
X902700Y7744700D01*
X904100Y7758400D01*
X906100Y7765800D01*
X909500Y7773200D01*
X914200Y7778500D01*
X919000Y7779600D01*
X923700Y7777500D01*
X927100Y7772200D01*
G01X970000Y7716100D02*
X971400Y7729900D01*
X973400Y7741500D01*
X976100Y7752100D01*
X979500Y7763700D01*
X984900Y7779600D01*
X957900D01*
G01X405800Y8875000D02*
Y7319200D01*
G01X748200Y8065400D02*
X742800Y8063300D01*
X738700Y8058000D01*
X736000Y8051600D01*
X734000Y8043200D01*
X733300Y8033600D01*
X734000Y8024100D01*
X736000Y8015700D01*
X738700Y8009300D01*
X742800Y8004000D01*
X748200Y8001900D01*
X753600Y8004000D01*
X757700Y8009300D01*
X760400Y8015700D01*
X762400Y8024100D01*
X763100Y8033600D01*
X762400Y8043200D01*
X760400Y8051600D01*
X757700Y8058000D01*
X753600Y8063300D01*
X748200Y8065400D01*
G01X804000Y7999800D02*
X802600Y8000800D01*
Y8003000D01*
X804000Y8004000D01*
X805400Y8003000D01*
Y8000800D01*
X804000Y7999800D01*
G01X848300Y8009300D02*
X853000Y8004000D01*
X858400Y8001900D01*
X863900Y8004000D01*
X868600Y8010400D01*
X872000Y8019900D01*
X873300Y8029400D01*
Y8041100D01*
X872000Y8050600D01*
X868600Y8059000D01*
X864500Y8063300D01*
X859800Y8065400D01*
X854400Y8063300D01*
X850300Y8059000D01*
X847600Y8052700D01*
X846300Y8044200D01*
X847600Y8036800D01*
X851000Y8029400D01*
X855100Y8025200D01*
X859800Y8024100D01*
X865200Y8026200D01*
X869300Y8031500D01*
X873300Y8041100D01*
G01X915600Y8001900D02*
Y8065400D01*
X907500Y8052700D01*
G01Y8001900D02*
X923700D01*
G01X979500D02*
Y8065400D01*
X954500Y8019900D01*
X988300D01*
G01X748200Y8351100D02*
X742800Y8349000D01*
X738700Y8343700D01*
X736000Y8337300D01*
X734000Y8328900D01*
X733300Y8319300D01*
X734000Y8309800D01*
X736000Y8301400D01*
X738700Y8295000D01*
X742800Y8289700D01*
X748200Y8287600D01*
X753600Y8289700D01*
X757700Y8295000D01*
X760400Y8301400D01*
X762400Y8309800D01*
X763100Y8319300D01*
X762400Y8328900D01*
X760400Y8337300D01*
X757700Y8343700D01*
X753600Y8349000D01*
X748200Y8351100D01*
G01X804000Y8285500D02*
X802600Y8286500D01*
Y8288700D01*
X804000Y8289700D01*
X805400Y8288700D01*
Y8286500D01*
X804000Y8285500D01*
G01X858400Y8287600D02*
X859800Y8301400D01*
X861800Y8313000D01*
X864500Y8323600D01*
X867900Y8335200D01*
X873300Y8351100D01*
X846300D01*
G01X915600Y8287600D02*
X920300Y8288700D01*
X925700Y8291800D01*
X929100Y8297100D01*
X930500Y8304500D01*
X929100Y8311900D01*
X925100Y8318300D01*
X919000Y8321500D01*
X912200D01*
X908200Y8323600D01*
X904800Y8328900D01*
X903400Y8336300D01*
X905500Y8343700D01*
X910200Y8349000D01*
X915600Y8351100D01*
X921000Y8349000D01*
X925700Y8343700D01*
X927800Y8336300D01*
X926400Y8328900D01*
X923000Y8323600D01*
X919000Y8321500D01*
X912200D01*
X906100Y8318300D01*
X902100Y8311900D01*
X900700Y8304500D01*
X902100Y8297100D01*
X905500Y8291800D01*
X910900Y8288700D01*
X915600Y8287600D01*
G01X970000D02*
X971400Y8301400D01*
X973400Y8313000D01*
X976100Y8323600D01*
X979500Y8335200D01*
X984900Y8351100D01*
X957900D01*
G01X748200Y8636900D02*
X742800Y8634800D01*
X738700Y8629500D01*
X736000Y8623100D01*
X734000Y8614700D01*
X733300Y8605100D01*
X734000Y8595600D01*
X736000Y8587200D01*
X738700Y8580800D01*
X742800Y8575500D01*
X748200Y8573400D01*
X753600Y8575500D01*
X757700Y8580800D01*
X760400Y8587200D01*
X762400Y8595600D01*
X763100Y8605100D01*
X762400Y8614700D01*
X760400Y8623100D01*
X757700Y8629500D01*
X753600Y8634800D01*
X748200Y8636900D01*
G01X804000Y8571300D02*
X802600Y8572300D01*
Y8574500D01*
X804000Y8575500D01*
X805400Y8574500D01*
Y8572300D01*
X804000Y8571300D01*
G01X846900Y8599900D02*
X851700Y8607300D01*
X855700Y8611500D01*
X861200Y8613600D01*
X865900Y8611500D01*
X869300Y8607300D01*
X872000Y8600900D01*
X872700Y8593500D01*
X872000Y8587200D01*
X869300Y8580800D01*
X865200Y8575500D01*
X860500Y8573400D01*
X855100Y8575500D01*
X850300Y8581900D01*
X847600Y8591400D01*
X846900Y8602000D01*
X848300Y8615700D01*
X850300Y8623100D01*
X853700Y8630500D01*
X858400Y8635800D01*
X863200Y8636900D01*
X867900Y8634800D01*
X871300Y8629500D01*
G01X900700Y8586100D02*
X904800Y8578700D01*
X910200Y8574500D01*
X916300Y8573400D01*
X921700Y8574500D01*
X927100Y8579700D01*
X930500Y8586100D01*
X931200Y8592400D01*
X929800Y8599900D01*
X925100Y8605100D01*
X920300Y8607300D01*
X914200D01*
G01X920300D02*
X924400Y8610400D01*
X927800Y8615700D01*
X929100Y8622100D01*
X927800Y8628400D01*
X924400Y8633700D01*
X918300Y8636900D01*
X912200Y8635800D01*
X906100Y8631600D01*
G01X956500Y8582900D02*
X960600Y8577600D01*
X965300Y8574500D01*
X971400Y8573400D01*
X977500Y8575500D01*
X982200Y8579700D01*
X985600Y8587200D01*
X986300Y8595600D01*
X984900Y8604100D01*
X981500Y8609400D01*
X976800Y8613600D01*
X972100Y8614700D01*
X967300Y8613600D01*
X961300Y8609400D01*
X963300Y8636900D01*
X981500D01*
G01X512100Y8779800D02*
Y8843300D01*
X537900D01*
G01X528400Y8812600D02*
X512100D01*
G01X572700Y8843300D02*
X588900D01*
G01X580800D02*
Y8779800D01*
G01X572700D02*
X588900D01*
G01X621000D02*
Y8843300D01*
X652200Y8779800D01*
Y8843300D01*
G01X684300D02*
X700500D01*
G01X692400D02*
Y8779800D01*
G01X684300D02*
X700500D01*
G01X734000Y8788300D02*
X739400Y8783000D01*
X745500Y8779800D01*
X750900D01*
X756300Y8783000D01*
X760400Y8788300D01*
X762400Y8795700D01*
X761100Y8803100D01*
X757700Y8809400D01*
X751600Y8813700D01*
X743500Y8815800D01*
X738700Y8820000D01*
X736700Y8827400D01*
X738100Y8834800D01*
X741400Y8840100D01*
X746200Y8843300D01*
X750900D01*
X755600Y8841200D01*
X759700Y8835900D01*
G01X789800Y8779800D02*
Y8843300D01*
G01X818200D02*
Y8779800D01*
G01Y8811500D02*
X789800D01*
G01X873300Y8779800D02*
X846300D01*
Y8843300D01*
X873300D01*
G01X862500Y8812600D02*
X846300D01*
G01X900700Y8779800D02*
Y8843300D01*
X914200D01*
X919700Y8840100D01*
X923700Y8835900D01*
X927100Y8829500D01*
X929800Y8822100D01*
X930500Y8811500D01*
X929800Y8801000D01*
X927100Y8793600D01*
X923700Y8787200D01*
X919700Y8783000D01*
X914200Y8779800D01*
X900700D01*
G01X951100Y8758600D02*
X991700D01*
G01X1013000Y8788300D02*
X1018400Y8783000D01*
X1024500Y8779800D01*
X1029900D01*
X1035300Y8783000D01*
X1039400Y8788300D01*
X1041400Y8795700D01*
X1040100Y8803100D01*
X1036700Y8809400D01*
X1030600Y8813700D01*
X1022500Y8815800D01*
X1017700Y8820000D01*
X1015700Y8827400D01*
X1017100Y8834800D01*
X1020400Y8840100D01*
X1025200Y8843300D01*
X1029900D01*
X1034600Y8841200D01*
X1038700Y8835900D01*
G01X1074900Y8843300D02*
X1091100D01*
G01X1083000D02*
Y8779800D01*
G01X1074900D02*
X1091100D01*
G01X1125900Y8843300D02*
X1151700D01*
X1125900Y8779800D01*
X1151700D01*
G01X1208100D02*
X1181100D01*
Y8843300D01*
X1208100D01*
G01X1197300Y8812600D02*
X1181100D01*
G01X348300Y8906800D02*
X365200Y8970300D01*
X382100Y8906800D01*
G01X376000Y8929000D02*
X354400D01*
G01X407500Y8970300D02*
Y8906800D01*
X434500D01*
G01X463300Y8970300D02*
Y8906800D01*
X490300D01*
G01X573500Y8970300D02*
Y8924800D01*
X576200Y8915300D01*
X581600Y8908900D01*
X588400Y8906800D01*
X595200Y8908900D01*
X600600Y8915300D01*
X603300Y8924800D01*
Y8970300D01*
G01X628600Y8906800D02*
Y8970300D01*
X659800Y8906800D01*
Y8970300D01*
G01X691900D02*
X708100D01*
G01X700000D02*
Y8906800D01*
G01X691900D02*
X708100D01*
G01X755800Y8970300D02*
Y8906800D01*
G01X740200Y8970300D02*
X771400D01*
G01X797400Y8915300D02*
X802800Y8910000D01*
X808900Y8906800D01*
X814300D01*
X819700Y8910000D01*
X823800Y8915300D01*
X825800Y8922700D01*
X824500Y8930100D01*
X821100Y8936400D01*
X815000Y8940700D01*
X806900Y8942800D01*
X802100Y8947000D01*
X800100Y8954400D01*
X801500Y8961800D01*
X804800Y8967100D01*
X809600Y8970300D01*
X814300D01*
X819000Y8968200D01*
X823100Y8962900D01*
G01X906300Y8906800D02*
X923200Y8970300D01*
X940100Y8906800D01*
G01X934000Y8929000D02*
X912400D01*
G01X965500Y8906800D02*
Y8970300D01*
X982400D01*
X987800Y8967100D01*
X991200Y8962900D01*
X992500Y8954400D01*
X991200Y8946000D01*
X987100Y8940700D01*
X982400Y8937500D01*
X965500D01*
G01X982400D02*
X992500Y8906800D01*
G01X1048300D02*
X1021300D01*
Y8970300D01*
X1048300D01*
G01X1037500Y8939600D02*
X1021300D01*
G01X1138300Y8970300D02*
X1154500D01*
G01X1146400D02*
Y8906800D01*
G01X1138300D02*
X1154500D01*
G01X1186600D02*
Y8970300D01*
X1217800Y8906800D01*
Y8970300D01*
G01X1296200Y8906800D02*
Y8970300D01*
X1313800Y8917400D01*
X1331400Y8970300D01*
Y8906800D01*
G01X1361500Y8970300D02*
X1377700D01*
G01X1369600D02*
Y8906800D01*
G01X1361500D02*
X1377700D01*
G01X1411900Y8970300D02*
Y8906800D01*
X1438900D01*
G01X1467700Y8970300D02*
Y8906800D01*
X1494700D01*
G01X1528900Y8970300D02*
X1545100D01*
G01X1537000D02*
Y8906800D01*
G01X1528900D02*
X1545100D01*
G01X1575200D02*
Y8970300D01*
X1592800Y8917400D01*
X1610400Y8970300D01*
Y8906800D01*
G01X1662100D02*
X1635100D01*
Y8970300D01*
X1662100D01*
G01X1651300Y8939600D02*
X1635100D01*
G01X1704400Y8970300D02*
Y8906800D01*
G01X1688800Y8970300D02*
X1720000D01*
G01X1773700Y8906800D02*
X1746700D01*
Y8970300D01*
X1773700D01*
G01X1762900Y8939600D02*
X1746700D01*
G01X1802500Y8906800D02*
Y8970300D01*
X1819400D01*
X1824800Y8967100D01*
X1828200Y8962900D01*
X1829500Y8954400D01*
X1828200Y8946000D01*
X1824100Y8940700D01*
X1819400Y8937500D01*
X1802500D01*
G01X1819400D02*
X1829500Y8906800D01*
G01X1857600Y8915300D02*
X1863000Y8910000D01*
X1869100Y8906800D01*
X1874500D01*
X1879900Y8910000D01*
X1884000Y8915300D01*
X1886000Y8922700D01*
X1884700Y8930100D01*
X1881300Y8936400D01*
X1875200Y8940700D01*
X1867100Y8942800D01*
X1862300Y8947000D01*
X1860300Y8954400D01*
X1861700Y8961800D01*
X1865000Y8967100D01*
X1869800Y8970300D01*
X1874500D01*
X1879200Y8968200D01*
X1883300Y8962900D01*
G01X406100Y9556800D02*
Y9620300D01*
X419600D01*
X425100Y9617100D01*
X429100Y9612900D01*
X432500Y9606500D01*
X435200Y9599100D01*
X435900Y9588500D01*
X435200Y9578000D01*
X432500Y9570600D01*
X429100Y9564200D01*
X425100Y9560000D01*
X419600Y9556800D01*
X406100D01*
G01X463300D02*
Y9620300D01*
X480200D01*
X485600Y9617100D01*
X489000Y9612900D01*
X490300Y9604400D01*
X489000Y9596000D01*
X484900Y9590700D01*
X480200Y9587500D01*
X463300D01*
G01X480200D02*
X490300Y9556800D01*
G01X524500Y9620300D02*
X540700D01*
G01X532600D02*
Y9556800D01*
G01X524500D02*
X540700D01*
G01X574900Y9620300D02*
Y9556800D01*
X601900D01*
G01X630700Y9620300D02*
Y9556800D01*
X657700D01*
G01X770700Y9615000D02*
X766600Y9618200D01*
X761900Y9620300D01*
X756500D01*
X750400Y9617100D01*
X745700Y9611800D01*
X742300Y9605500D01*
X739600Y9594900D01*
X738900Y9585400D01*
X740200Y9575800D01*
X742300Y9569500D01*
X746300Y9563100D01*
X751100Y9558900D01*
X755800Y9556800D01*
X760500D01*
X765300Y9558900D01*
X769300Y9562100D01*
X772700Y9566300D01*
G01X797400Y9556800D02*
Y9620300D01*
G01X825800D02*
Y9556800D01*
G01Y9588500D02*
X797400D01*
G01X850500Y9556800D02*
X867400Y9620300D01*
X884300Y9556800D01*
G01X878200Y9579000D02*
X856600D01*
G01X909700Y9556800D02*
Y9620300D01*
X926600D01*
X932000Y9617100D01*
X935400Y9612900D01*
X936700Y9604400D01*
X935400Y9596000D01*
X931300Y9590700D01*
X926600Y9587500D01*
X909700D01*
G01X926600D02*
X936700Y9556800D01*
G01X979000Y9620300D02*
Y9556800D01*
G01X963400Y9620300D02*
X994600D01*
G01X1034800Y9554700D02*
X1033400Y9555700D01*
Y9557900D01*
X1034800Y9558900D01*
X1036200Y9557900D01*
Y9555700D01*
X1034800Y9554700D01*
G01Y9583300D02*
X1033400Y9584300D01*
Y9586400D01*
X1034800Y9587500D01*
X1036200Y9586400D01*
Y9584300D01*
X1034800Y9583300D01*
G01X1146400Y9620300D02*
Y9556800D01*
G01X1130800Y9620300D02*
X1162000D01*
G01X1202200Y9556800D02*
X1196800Y9557900D01*
X1192100Y9562100D01*
X1188000Y9568400D01*
X1185300Y9575800D01*
X1183900Y9584300D01*
Y9592800D01*
X1185300Y9601300D01*
X1188000Y9608700D01*
X1192100Y9615000D01*
X1196800Y9619200D01*
X1202200Y9620300D01*
X1207600Y9619200D01*
X1212300Y9615000D01*
X1216400Y9608700D01*
X1219100Y9601300D01*
X1220500Y9592800D01*
Y9584300D01*
X1219100Y9575800D01*
X1216400Y9568400D01*
X1212300Y9562100D01*
X1207600Y9557900D01*
X1202200Y9556800D01*
G01X1244500D02*
Y9620300D01*
X1260700D01*
X1266100Y9617100D01*
X1270200Y9609700D01*
X1271500Y9601300D01*
X1270200Y9592800D01*
X1266800Y9586400D01*
X1260700Y9583300D01*
X1244500D01*
G01X1369600Y9620300D02*
Y9556800D01*
G01X1360100Y9599100D02*
X1379100D01*
G01X1425400Y9556800D02*
X1421300Y9557900D01*
X1417300Y9562100D01*
X1414600Y9569500D01*
X1413200Y9578000D01*
X1414600Y9586400D01*
X1417300Y9593800D01*
X1421300Y9598100D01*
X1425400Y9599100D01*
X1429500Y9598100D01*
X1433500Y9593800D01*
X1436200Y9586400D01*
X1436900Y9578000D01*
X1436200Y9569500D01*
X1433500Y9562100D01*
X1429500Y9557900D01*
X1425400Y9556800D01*
G01X1542400Y9590700D02*
X1545100Y9593800D01*
X1547100Y9599100D01*
X1548500Y9606500D01*
X1547100Y9612900D01*
X1544400Y9617100D01*
X1539700Y9620300D01*
X1521400D01*
Y9556800D01*
X1543800D01*
X1548500Y9561000D01*
X1551200Y9567400D01*
X1552600Y9574800D01*
X1551200Y9582200D01*
X1547100Y9588500D01*
X1542400Y9590700D01*
X1521400D01*
G01X1592800Y9556800D02*
X1587400Y9557900D01*
X1582700Y9562100D01*
X1578600Y9568400D01*
X1575900Y9575800D01*
X1574500Y9584300D01*
Y9592800D01*
X1575900Y9601300D01*
X1578600Y9608700D01*
X1582700Y9615000D01*
X1587400Y9619200D01*
X1592800Y9620300D01*
X1598200Y9619200D01*
X1602900Y9615000D01*
X1607000Y9608700D01*
X1609700Y9601300D01*
X1611100Y9592800D01*
Y9584300D01*
X1609700Y9575800D01*
X1607000Y9568400D01*
X1602900Y9562100D01*
X1598200Y9557900D01*
X1592800Y9556800D01*
G01X1648600Y9620300D02*
Y9556800D01*
G01X1633000Y9620300D02*
X1664200D01*
G01X1704400D02*
Y9556800D01*
G01X1688800Y9620300D02*
X1720000D01*
G01X1760200Y9556800D02*
X1754800Y9557900D01*
X1750100Y9562100D01*
X1746000Y9568400D01*
X1743300Y9575800D01*
X1741900Y9584300D01*
Y9592800D01*
X1743300Y9601300D01*
X1746000Y9608700D01*
X1750100Y9615000D01*
X1754800Y9619200D01*
X1760200Y9620300D01*
X1765600Y9619200D01*
X1770300Y9615000D01*
X1774400Y9608700D01*
X1777100Y9601300D01*
X1778500Y9592800D01*
Y9584300D01*
X1777100Y9575800D01*
X1774400Y9568400D01*
X1770300Y9562100D01*
X1765600Y9557900D01*
X1760200Y9556800D01*
G01X1798400D02*
Y9620300D01*
X1816000Y9567400D01*
X1833600Y9620300D01*
Y9556800D01*
G01X1333700Y7430400D02*
Y7493900D01*
X1364900Y7430400D01*
Y7493900D01*
G01X1405100Y7430400D02*
X1399700Y7431500D01*
X1395000Y7435700D01*
X1390900Y7442000D01*
X1388200Y7449400D01*
X1386800Y7457900D01*
Y7466400D01*
X1388200Y7474900D01*
X1390900Y7482300D01*
X1395000Y7488600D01*
X1399700Y7492800D01*
X1405100Y7493900D01*
X1410500Y7492800D01*
X1415200Y7488600D01*
X1419300Y7482300D01*
X1422000Y7474900D01*
X1423400Y7466400D01*
Y7457900D01*
X1422000Y7449400D01*
X1419300Y7442000D01*
X1415200Y7435700D01*
X1410500Y7431500D01*
X1405100Y7430400D01*
G01X1445300D02*
Y7493900D01*
X1476500Y7430400D01*
Y7493900D01*
G01X1507900Y7451600D02*
X1525500D01*
G01X1559000Y7430400D02*
Y7493900D01*
X1575200D01*
X1580600Y7490700D01*
X1584700Y7483300D01*
X1586000Y7474900D01*
X1584700Y7466400D01*
X1581300Y7460000D01*
X1575200Y7456900D01*
X1559000D01*
G01X1614800Y7493900D02*
Y7430400D01*
X1641800D01*
G01X1667200D02*
X1684100Y7493900D01*
X1701000Y7430400D01*
G01X1694900Y7452600D02*
X1673300D01*
G01X1739900Y7493900D02*
Y7430400D01*
G01X1724300Y7493900D02*
X1755500D01*
G01X1809200Y7430400D02*
X1782200D01*
Y7493900D01*
X1809200D01*
G01X1798400Y7463200D02*
X1782200D01*
G01X1836600Y7430400D02*
Y7493900D01*
X1850100D01*
X1855600Y7490700D01*
X1859600Y7486500D01*
X1863000Y7480100D01*
X1865700Y7472700D01*
X1866400Y7462100D01*
X1865700Y7451600D01*
X1863000Y7444200D01*
X1859600Y7437800D01*
X1855600Y7433600D01*
X1850100Y7430400D01*
X1836600D01*
G01X1447400Y7716100D02*
Y7779600D01*
X1463600D01*
X1469000Y7776400D01*
X1473100Y7769000D01*
X1474400Y7760600D01*
X1473100Y7752100D01*
X1469700Y7745700D01*
X1463600Y7742600D01*
X1447400D01*
G01X1503200Y7779600D02*
Y7716100D01*
X1530200D01*
G01X1555600D02*
X1572500Y7779600D01*
X1589400Y7716100D01*
G01X1583300Y7738300D02*
X1561700D01*
G01X1628300Y7779600D02*
Y7716100D01*
G01X1612700Y7779600D02*
X1643900D01*
G01X1697600Y7716100D02*
X1670600D01*
Y7779600D01*
X1697600D01*
G01X1686800Y7748900D02*
X1670600D01*
G01X1725000Y7716100D02*
Y7779600D01*
X1738500D01*
X1744000Y7776400D01*
X1748000Y7772200D01*
X1751400Y7765800D01*
X1754100Y7758400D01*
X1754800Y7747800D01*
X1754100Y7737300D01*
X1751400Y7729900D01*
X1748000Y7723500D01*
X1744000Y7719300D01*
X1738500Y7716100D01*
X1725000D01*
G01X1313800Y8875000D02*
Y7319200D01*
G01X1447400Y8001900D02*
Y8065400D01*
X1463600D01*
X1469000Y8062200D01*
X1473100Y8054800D01*
X1474400Y8046400D01*
X1473100Y8037900D01*
X1469700Y8031500D01*
X1463600Y8028400D01*
X1447400D01*
G01X1503200Y8065400D02*
Y8001900D01*
X1530200D01*
G01X1555600D02*
X1572500Y8065400D01*
X1589400Y8001900D01*
G01X1583300Y8024100D02*
X1561700D01*
G01X1628300Y8065400D02*
Y8001900D01*
G01X1612700Y8065400D02*
X1643900D01*
G01X1697600Y8001900D02*
X1670600D01*
Y8065400D01*
X1697600D01*
G01X1686800Y8034700D02*
X1670600D01*
G01X1725000Y8001900D02*
Y8065400D01*
X1738500D01*
X1744000Y8062200D01*
X1748000Y8058000D01*
X1751400Y8051600D01*
X1754100Y8044200D01*
X1754800Y8033600D01*
X1754100Y8023100D01*
X1751400Y8015700D01*
X1748000Y8009300D01*
X1744000Y8005100D01*
X1738500Y8001900D01*
X1725000D01*
G01X1447400Y8287600D02*
Y8351100D01*
X1463600D01*
X1469000Y8347900D01*
X1473100Y8340500D01*
X1474400Y8332100D01*
X1473100Y8323600D01*
X1469700Y8317200D01*
X1463600Y8314100D01*
X1447400D01*
G01X1503200Y8351100D02*
Y8287600D01*
X1530200D01*
G01X1555600D02*
X1572500Y8351100D01*
X1589400Y8287600D01*
G01X1583300Y8309800D02*
X1561700D01*
G01X1628300Y8351100D02*
Y8287600D01*
G01X1612700Y8351100D02*
X1643900D01*
G01X1697600Y8287600D02*
X1670600D01*
Y8351100D01*
X1697600D01*
G01X1686800Y8320400D02*
X1670600D01*
G01X1725000Y8287600D02*
Y8351100D01*
X1738500D01*
X1744000Y8347900D01*
X1748000Y8343700D01*
X1751400Y8337300D01*
X1754100Y8329900D01*
X1754800Y8319300D01*
X1754100Y8308800D01*
X1751400Y8301400D01*
X1748000Y8295000D01*
X1744000Y8290800D01*
X1738500Y8287600D01*
X1725000D01*
G01X1447400Y8573400D02*
Y8636900D01*
X1463600D01*
X1469000Y8633700D01*
X1473100Y8626300D01*
X1474400Y8617900D01*
X1473100Y8609400D01*
X1469700Y8603000D01*
X1463600Y8599900D01*
X1447400D01*
G01X1503200Y8636900D02*
Y8573400D01*
X1530200D01*
G01X1555600D02*
X1572500Y8636900D01*
X1589400Y8573400D01*
G01X1583300Y8595600D02*
X1561700D01*
G01X1628300Y8636900D02*
Y8573400D01*
G01X1612700Y8636900D02*
X1643900D01*
G01X1697600Y8573400D02*
X1670600D01*
Y8636900D01*
X1697600D01*
G01X1686800Y8606200D02*
X1670600D01*
G01X1725000Y8573400D02*
Y8636900D01*
X1738500D01*
X1744000Y8633700D01*
X1748000Y8629500D01*
X1751400Y8623100D01*
X1754100Y8615700D01*
X1754800Y8605100D01*
X1754100Y8594600D01*
X1751400Y8587200D01*
X1748000Y8580800D01*
X1744000Y8576600D01*
X1738500Y8573400D01*
X1725000D01*
G01X1447400Y8779800D02*
Y8843300D01*
X1463600D01*
X1469000Y8840100D01*
X1473100Y8832700D01*
X1474400Y8824300D01*
X1473100Y8815800D01*
X1469700Y8809400D01*
X1463600Y8806300D01*
X1447400D01*
G01X1503200Y8843300D02*
Y8779800D01*
X1530200D01*
G01X1555600D02*
X1572500Y8843300D01*
X1589400Y8779800D01*
G01X1583300Y8802000D02*
X1561700D01*
G01X1628300Y8843300D02*
Y8779800D01*
G01X1612700Y8843300D02*
X1643900D01*
G01X1697600Y8779800D02*
X1670600D01*
Y8843300D01*
X1697600D01*
G01X1686800Y8812600D02*
X1670600D01*
G01X1725000Y8779800D02*
Y8843300D01*
X1738500D01*
X1744000Y8840100D01*
X1748000Y8835900D01*
X1751400Y8829500D01*
X1754100Y8822100D01*
X1754800Y8811500D01*
X1754100Y8801000D01*
X1751400Y8793600D01*
X1748000Y8787200D01*
X1744000Y8783000D01*
X1738500Y8779800D01*
X1725000D01*
G01X2070100Y7430400D02*
Y7493900D01*
X2045100Y7448400D01*
X2078900D01*
G01X2021200Y7769000D02*
X2025300Y7775400D01*
X2030000Y7778500D01*
X2035500Y7779600D01*
X2042200Y7777500D01*
X2047000Y7772200D01*
X2048300Y7765800D01*
X2047600Y7759500D01*
X2044900Y7754200D01*
X2031400Y7743600D01*
X2025300Y7736200D01*
X2021200Y7725600D01*
X2019900Y7716100D01*
X2048300D01*
G01X2077000Y7769000D02*
X2081100Y7775400D01*
X2085800Y7778500D01*
X2091300Y7779600D01*
X2098000Y7777500D01*
X2102800Y7772200D01*
X2104100Y7765800D01*
X2103400Y7759500D01*
X2100700Y7754200D01*
X2087200Y7743600D01*
X2081100Y7736200D01*
X2077000Y7725600D01*
X2075700Y7716100D01*
X2104100D01*
G01X1887000Y8875000D02*
Y7319200D01*
G01X2019200Y8011400D02*
X2023300Y8006100D01*
X2028000Y8003000D01*
X2034100Y8001900D01*
X2040200Y8004000D01*
X2044900Y8008200D01*
X2048300Y8015700D01*
X2049000Y8024100D01*
X2047600Y8032600D01*
X2044200Y8037900D01*
X2039500Y8042100D01*
X2034800Y8043200D01*
X2030000Y8042100D01*
X2024000Y8037900D01*
X2026000Y8065400D01*
X2044200D01*
G01X2075000Y8011400D02*
X2079100Y8006100D01*
X2083800Y8003000D01*
X2089900Y8001900D01*
X2096000Y8004000D01*
X2100700Y8008200D01*
X2104100Y8015700D01*
X2104800Y8024100D01*
X2103400Y8032600D01*
X2100000Y8037900D01*
X2095300Y8042100D01*
X2090600Y8043200D01*
X2085800Y8042100D01*
X2079800Y8037900D01*
X2081800Y8065400D01*
X2100000D01*
G01X2047100Y8300300D02*
X2051200Y8292900D01*
X2056600Y8288700D01*
X2062700Y8287600D01*
X2068100Y8288700D01*
X2073500Y8293900D01*
X2076900Y8300300D01*
X2077600Y8306600D01*
X2076200Y8314100D01*
X2071500Y8319300D01*
X2066700Y8321500D01*
X2060600D01*
G01X2066700D02*
X2070800Y8324600D01*
X2074200Y8329900D01*
X2075500Y8336300D01*
X2074200Y8342600D01*
X2070800Y8347900D01*
X2064700Y8351100D01*
X2058600Y8350000D01*
X2052500Y8345800D01*
G01X2049100Y8626300D02*
X2053200Y8632700D01*
X2057900Y8635800D01*
X2063400Y8636900D01*
X2070100Y8634800D01*
X2074900Y8629500D01*
X2076200Y8623100D01*
X2075500Y8616800D01*
X2072800Y8611500D01*
X2059300Y8600900D01*
X2053200Y8593500D01*
X2049100Y8582900D01*
X2047800Y8573400D01*
X2076200D01*
G01X2006200Y8779800D02*
X2000800Y8780900D01*
X1996100Y8785100D01*
X1992000Y8791400D01*
X1989300Y8798800D01*
X1987900Y8807300D01*
Y8815800D01*
X1989300Y8824300D01*
X1992000Y8831700D01*
X1996100Y8838000D01*
X2000800Y8842200D01*
X2006200Y8843300D01*
X2011600Y8842200D01*
X2016300Y8838000D01*
X2020400Y8831700D01*
X2023100Y8824300D01*
X2024500Y8815800D01*
Y8807300D01*
X2023100Y8798800D01*
X2020400Y8791400D01*
X2016300Y8785100D01*
X2011600Y8780900D01*
X2006200Y8779800D01*
G01X2011600Y8796700D02*
X2019700Y8779800D01*
G01X2062000Y8843300D02*
Y8779800D01*
G01X2046400Y8843300D02*
X2077600D01*
G01X2117800Y8779800D02*
Y8808400D01*
X2104300Y8843300D01*
G01X2131300D02*
X2117800Y8808400D01*
M02*
