G04 ================== begin FILE IDENTIFICATION RECORD ==================*
G04 Layout Name:  PULSE_MODULATION.brd*
G04 Film Name:    solderT*
G04 File Format:  Gerber RS274X*
G04 File Origin:  Cadence Allegro 17.2-P019*
G04 Origin Date:  Tue Jul 30 17:46:15 2019*
G04 *
G04 Layer:  VIA CLASS/SOLDERMASK_TOP*
G04 Layer:  PIN/SOLDERMASK_TOP*
G04 Layer:  PACKAGE GEOMETRY/SOLDERMASK_TOP*
G04 Layer:  BOARD GEOMETRY/SOLDERMASK_TOP*
G04 *
G04 Offset:    (0.000 0.000)*
G04 Mirror:    No*
G04 Mode:      Positive*
G04 Rotation:  0*
G04 FullContactRelief:  No*
G04 UndefLineWidth:     0.000*
G04 ================== end FILE IDENTIFICATION RECORD ====================*
%FSLAX25Y25*MOMM*%
%IR0*IPPOS*OFA0.00000B0.00000*MIA0B0*SFA1.00000B1.00000*%
%ADD12C,2.032*%
%ADD16R,2.032X2.032*%
%ADD11C,1.905*%
%ADD10C,3.683*%
%ADD13R,1.905X1.905*%
%ADD15O,1.016X1.524*%
%ADD14R,1.016X1.524*%
%LPD*%
G75*
G54D10*
X500000Y500000D03*
Y6500000D03*
X9461500Y508000D03*
X9500000Y6500000D03*
G54D11*
X500000Y2238000D03*
Y2492000D03*
Y2746000D03*
Y3000000D03*
Y4246000D03*
Y3992000D03*
Y4500000D03*
X2398000Y1638000D03*
X2652000D03*
X2398000Y2400000D03*
X2652000D03*
X2138000Y5038000D03*
X2392000D03*
X2646000D03*
X2138000Y5800000D03*
X2392000D03*
X2646000D03*
X2906000Y1638000D03*
X3160000D03*
X2906000Y2400000D03*
X2900000Y5038000D03*
X4278000Y1678000D03*
X4532000D03*
X4786000D03*
X4278000Y2440000D03*
X4532000D03*
X4786000D03*
X5040000Y1678000D03*
X5380000Y5372000D03*
X5126000Y5626000D03*
X5380000Y5880000D03*
X5878000Y1698000D03*
X6132000D03*
X6386000D03*
X5878000Y2460000D03*
X6132000D03*
X6386000D03*
X6460000Y5840000D03*
X6640000Y1698000D03*
X6714000Y5586000D03*
X6968000Y5840000D03*
X7338000Y5138000D03*
X7592000D03*
X7846000D03*
X7338000Y5900000D03*
X7592000D03*
X7846000D03*
X8100000Y5138000D03*
X9500000Y3254000D03*
Y3000000D03*
G54D12*
X2406000Y1160000D03*
X2660000D03*
X3320000D03*
X3720000Y3560000D03*
Y4260000D03*
X3680000Y5760000D03*
X3664000Y5060000D03*
X4336000Y1160000D03*
X4736000Y3560000D03*
Y4260000D03*
X4696000Y5760000D03*
X4680000Y5060000D03*
X5640000Y3600000D03*
X5700000Y4280000D03*
X7240000Y3620000D03*
X6656000Y3600000D03*
X6716000Y4280000D03*
X7340000Y2614400D03*
X7614000Y4420000D03*
X7360000D03*
X8100000Y1624000D03*
Y2640000D03*
X8256000Y3620000D03*
G54D13*
X3160000Y2400000D03*
X2900000Y5800000D03*
X5040000Y2440000D03*
X6640000Y2460000D03*
X8100000Y5900000D03*
G54D14*
X5680000Y5060000D03*
G54D15*
X5807000D03*
X5934000D03*
G54D16*
X7340000Y1700000D03*
M02*
