G04 ================== begin FILE IDENTIFICATION RECORD ==================*
G04 Layout Name:  PULSE_MODULATION.brd*
G04 Film Name:    TOP*
G04 File Format:  Gerber RS274X*
G04 File Origin:  Cadence Allegro 17.2-P019*
G04 Origin Date:  Tue Jul 30 17:46:15 2019*
G04 *
G04 Layer:  ETCH/TOP*
G04 Layer:  PIN/TOP*
G04 Layer:  VIA CLASS/TOP*
G04 *
G04 Offset:    (0.000 0.000)*
G04 Mirror:    No*
G04 Mode:      Positive*
G04 Rotation:  0*
G04 FullContactRelief:  No*
G04 UndefLineWidth:     0.000*
G04 ================== end FILE IDENTIFICATION RECORD ====================*
%FSLAX25Y25*MOMM*%
%IR0*IPPOS*OFA0.00000B0.00000*MIA0B0*SFA1.00000B1.00000*%
%ADD11C,1.524*%
%ADD12C,1.651*%
%ADD13R,1.524X1.524*%
%ADD17C,1.397*%
%ADD16R,1.397X1.397*%
%ADD15O,1.016X1.524*%
%ADD14R,1.016X1.524*%
%ADD10C,.635*%
%ADD18C,1.*%
%ADD19C,.5*%
G75*
%LPD*%
G75*
G54D10*
X500000Y500000D03*
Y6500000D03*
X9461500Y508000D03*
X9500000Y6500000D03*
G54D11*
X500000Y2238000D03*
Y2492000D03*
Y2746000D03*
Y3000000D03*
Y4246000D03*
Y3992000D03*
Y4500000D03*
X2398000Y1638000D03*
X2652000D03*
X2398000Y2400000D03*
X2652000D03*
X2138000Y5038000D03*
X2392000D03*
X2646000D03*
X2138000Y5800000D03*
X2392000D03*
X2646000D03*
X2906000Y1638000D03*
X3160000D03*
X2906000Y2400000D03*
X2900000Y5038000D03*
X4278000Y1678000D03*
X4532000D03*
X4786000D03*
X4278000Y2440000D03*
X4532000D03*
X4786000D03*
X5040000Y1678000D03*
X5380000Y5372000D03*
X5126000Y5626000D03*
X5380000Y5880000D03*
X5878000Y1698000D03*
X6132000D03*
X6386000D03*
X5878000Y2460000D03*
X6132000D03*
X6386000D03*
X6460000Y5840000D03*
X6640000Y1698000D03*
X6714000Y5586000D03*
X6968000Y5840000D03*
X7338000Y5138000D03*
X7592000D03*
X7846000D03*
X7338000Y5900000D03*
X7592000D03*
X7846000D03*
X8100000Y5138000D03*
X9500000Y3254000D03*
Y3000000D03*
G54D12*
X2406000Y1160000D03*
X2660000D03*
X3320000D03*
X3720000Y3560000D03*
Y4260000D03*
X3680000Y5760000D03*
X3664000Y5060000D03*
X4336000Y1160000D03*
X4736000Y3560000D03*
Y4260000D03*
X4696000Y5760000D03*
X4680000Y5060000D03*
X5640000Y3600000D03*
X5700000Y4280000D03*
X7240000Y3620000D03*
X6656000Y3600000D03*
X6716000Y4280000D03*
X7614000Y4420000D03*
X7360000D03*
X8100000Y1624000D03*
Y2640000D03*
X8256000Y3620000D03*
G54D13*
X3160000Y2400000D03*
X2900000Y5800000D03*
X5040000Y2440000D03*
X6640000Y2460000D03*
X8100000Y5900000D03*
G54D14*
X5680000Y5060000D03*
G54D15*
X5807000D03*
X5934000D03*
G54D16*
X7340000Y1700000D03*
G54D17*
Y2614400D03*
G54D18*
G01X500000Y2492000D02*
X448400D01*
X348400Y2392000D01*
Y1260000D01*
X448400Y1160000D01*
X2354800D01*
G01X500000Y2238000D02*
X515500Y2222500D01*
X2220500D01*
X2398000Y2400000D01*
G01X3720000Y3560000D02*
X3562000D01*
X3558000Y3556000D01*
X862000D01*
X607200Y3301200D01*
Y2853200D01*
X500000Y2746000D01*
G01Y3992000D02*
X753600D01*
X889000Y4127400D01*
Y5869000D01*
X1116000Y6096000D01*
X2247600D01*
X2392000Y5951600D01*
Y5800000D01*
G01X2354800Y1160000D02*
X2181300Y1333500D01*
Y1763800D01*
X2281300Y1863800D01*
X2835200D01*
X2906000Y1793000D01*
Y1638000D01*
G01X2354800Y1160000D02*
X2406000D01*
G01X2398000Y2400000D02*
Y2551600D01*
X2576900Y2730500D01*
X4139100D01*
X4278000Y2591600D01*
Y2440000D01*
G01X3160000Y2400000D02*
Y1852500D01*
X3311600Y1700900D01*
Y1514400D01*
X3365500Y1460500D01*
X4635500D01*
X4786000Y1611000D01*
G01X6386000Y1698000D02*
Y1546400D01*
X6300100Y1460500D01*
X4886000D01*
X4786000Y1560500D01*
Y1611000D01*
G01D02*
Y1678000D01*
G01X5878000Y2460000D02*
Y2308400D01*
X5792100Y2222500D01*
X5188200D01*
X5178700Y2213000D01*
X4353400D01*
X4278000Y2288400D01*
Y2440000D01*
G01X6714000Y5586000D02*
X7999900D01*
X8100000Y5485900D01*
Y5138000D01*
G01X6968000Y5840000D02*
X6714000Y5586000D01*
G01X8256000Y3620000D02*
X8447000Y3429000D01*
X9325000D01*
X9500000Y3254000D01*
G54D19*
G01X3320000Y1160000D02*
Y1364000D01*
X3223500Y1460500D01*
X2448900D01*
X2398000Y1511400D01*
Y1638000D01*
G01X2392000Y5038000D02*
Y4402400D01*
X2539900Y4254500D01*
X3581500D01*
X3587000Y4260000D01*
X3720000D01*
G01X3680000Y5760000D02*
Y5919000D01*
X3630000Y5969000D01*
X2688400D01*
X2646000Y5926600D01*
Y5800000D01*
G01X3720000Y4260000D02*
X3873500Y4413500D01*
Y5270500D01*
X3975000Y5372000D01*
X5380000D01*
G01X4532000Y1678000D02*
Y1855000D01*
X4582000Y1905000D01*
X6335900D01*
X6386000Y1955100D01*
Y2460000D01*
G01X5640000Y3600000D02*
Y2653500D01*
X5590000Y2603500D01*
X4949500D01*
X4786000Y2440000D01*
G01X4736000Y4260000D02*
X4577600D01*
X4442400Y4124800D01*
Y2529600D01*
X4532000Y2440000D01*
G01X4696000Y5760000D02*
X4830000Y5626000D01*
X5126000D01*
G01X4680000Y5060000D02*
X4806600Y5186600D01*
X5807000D01*
G01X7240000Y3620000D02*
X7113500Y3746500D01*
X5786500D01*
X5640000Y3600000D01*
G01X5126000Y5626000D02*
X5380000Y5880000D01*
G01X7340000Y1700000D02*
Y1779600D01*
X7290000Y1829600D01*
X6137000D01*
X6132000Y1824600D01*
Y1698000D01*
G01X5807000Y5186600D02*
X5917500Y5297100D01*
X7432900D01*
X7592000Y5138000D01*
G01X5807000Y5186600D02*
Y5060000D01*
G01X8100000Y2640000D02*
X7967000D01*
X7941400Y2614400D01*
X7340000D01*
G01X7592000Y5138000D02*
X7846000D01*
G01X8100000Y2640000D02*
X9450000D01*
X9500000Y2690000D01*
Y3000000D01*
M02*
